<svg xmlns="http://www.w3.org/2000/svg" viewBox="0 0 196.99 95.11"><defs><style>.cls-1{fill:none;stroke:#000;stroke-miterlimit:10;stroke-width:5px;}</style></defs><g id="Layer_2" data-name="Layer 2"><g id="Layer_1-2" data-name="Layer 1"><path d="M24.58,34.27H19.39V30.91H19.3A6.55,6.55,0,0,1,16.08,34a11,11,0,0,1-4.46.93,11.85,11.85,0,0,1-5.12-1A10.19,10.19,0,0,1,2.88,31.1,12,12,0,0,1,.72,26.9,18.15,18.15,0,0,1,0,21.7a16.6,16.6,0,0,1,.91-5.81,11.59,11.59,0,0,1,2.43-4A9.34,9.34,0,0,1,6.79,9.53a11,11,0,0,1,4-.75A13.62,13.62,0,0,1,13.1,9a10.27,10.27,0,0,1,2.31.7,9.19,9.19,0,0,1,2,1.22A7,7,0,0,1,19,12.67h.09V0h5.48ZM5.47,22.13a12.26,12.26,0,0,0,.41,3.12A8.52,8.52,0,0,0,7.13,28a6,6,0,0,0,5.21,2.64,6.16,6.16,0,0,0,3.14-.76,6.63,6.63,0,0,0,2.16-2A9.06,9.06,0,0,0,18.89,25a12.63,12.63,0,0,0,.41-3.19,10,10,0,0,0-1.85-6.43,6.09,6.09,0,0,0-5-2.31,6.18,6.18,0,0,0-3.24.8A6.55,6.55,0,0,0,7,16a8.61,8.61,0,0,0-1.2,2.88A15,15,0,0,0,5.47,22.13Z"/><path d="M34.27,23.28a9.54,9.54,0,0,0,.4,2.78,7,7,0,0,0,1.23,2.36A5.87,5.87,0,0,0,38,30a6.83,6.83,0,0,0,3,.6,6.53,6.53,0,0,0,3.86-1A6.1,6.1,0,0,0,47,26.5h5.18a10.3,10.3,0,0,1-4,6.26,10.82,10.82,0,0,1-3.34,1.63,13.34,13.34,0,0,1-3.86.55,13.2,13.2,0,0,1-5.19-1,10.73,10.73,0,0,1-3.81-2.68,11.36,11.36,0,0,1-2.35-4.13,16.71,16.71,0,0,1-.8-5.28,15,15,0,0,1,.84-5A12.85,12.85,0,0,1,32,12.7a11.27,11.27,0,0,1,8.76-3.92A11.06,11.06,0,0,1,46.05,10a11.36,11.36,0,0,1,3.86,3.24,13.12,13.12,0,0,1,2.24,4.63,14.35,14.35,0,0,1,.36,5.4ZM47,19.68a8.55,8.55,0,0,0-.55-2.5,6.48,6.48,0,0,0-1.25-2.08,5.78,5.78,0,0,0-1.92-1.44,5.62,5.62,0,0,0-2.52-.56,6.47,6.47,0,0,0-2.61.51,5.88,5.88,0,0,0-2,1.39,6.75,6.75,0,0,0-1.34,2.09,7.14,7.14,0,0,0-.55,2.59Z"/><path d="M60.51,26.3a4.12,4.12,0,0,0,1.82,3.36,7.19,7.19,0,0,0,3.79,1,14.71,14.71,0,0,0,1.76-.12,7.74,7.74,0,0,0,1.84-.45,3.38,3.38,0,0,0,1.42-1,2.31,2.31,0,0,0,.5-1.7,2.42,2.42,0,0,0-.76-1.73A5.45,5.45,0,0,0,69,24.55a17.9,17.9,0,0,0-2.57-.69c-1-.2-1.94-.4-2.93-.63a26.54,26.54,0,0,1-3-.81A9.37,9.37,0,0,1,58,21.12,5.79,5.79,0,0,1,56.24,19a6.63,6.63,0,0,1-.68-3.14,5.64,5.64,0,0,1,1-3.39A7.54,7.54,0,0,1,59,10.3,10.81,10.81,0,0,1,62.4,9.12a20.23,20.23,0,0,1,3.53-.34,16.19,16.19,0,0,1,3.67.41,10.07,10.07,0,0,1,3.17,1.32,7.63,7.63,0,0,1,2.35,2.38,8.16,8.16,0,0,1,1.18,3.53H70.59a3.4,3.4,0,0,0-1.8-2.64,7.48,7.48,0,0,0-3.24-.68,12.6,12.6,0,0,0-1.37.1,6,6,0,0,0-1.49.36,3.14,3.14,0,0,0-1.17.77A1.82,1.82,0,0,0,61,15.65a2.09,2.09,0,0,0,.69,1.63,5.41,5.41,0,0,0,1.83,1,17.69,17.69,0,0,0,2.56.7l3,.62c1,.23,2,.5,2.93.82a9.68,9.68,0,0,1,2.57,1.29,6.36,6.36,0,0,1,1.82,2.07,6.28,6.28,0,0,1,.7,3.07,6.67,6.67,0,0,1-1,3.74,7.93,7.93,0,0,1-2.62,2.5,11.91,11.91,0,0,1-3.57,1.39,18,18,0,0,1-3.89.43,17.07,17.07,0,0,1-4.35-.52,10.27,10.27,0,0,1-3.45-1.61,7.77,7.77,0,0,1-2.31-2.69A8.51,8.51,0,0,1,55,26.3Z"/><path d="M81.09,0h5.47V5.18H81.09Zm0,9.46h5.47V34.27H81.09Z"/><path d="M115,33q0,5.61-3.14,8.37t-9,2.76A19.36,19.36,0,0,1,99,43.73a11.32,11.32,0,0,1-3.46-1.3A8.31,8.31,0,0,1,92.92,40a7.26,7.26,0,0,1-1.25-3.65h5.47A4.34,4.34,0,0,0,98,38.26a4.1,4.1,0,0,0,1.37,1.12,5,5,0,0,0,1.75.53,16.21,16.21,0,0,0,2,.12q3.31,0,4.85-1.63a6.59,6.59,0,0,0,1.54-4.7V29.9h-.1a8.44,8.44,0,0,1-7.44,4.37,11.3,11.3,0,0,1-5.06-1,9.66,9.66,0,0,1-3.46-2.83,11.84,11.84,0,0,1-2-4.15,19.44,19.44,0,0,1-.62-5,14.74,14.74,0,0,1,.76-4.76,12.16,12.16,0,0,1,2.21-4,10.65,10.65,0,0,1,3.53-2.71,10.77,10.77,0,0,1,4.73-1,9.52,9.52,0,0,1,4.32,1,6.66,6.66,0,0,1,3,3.09h.1V9.46H115Zm-12.14-3a6,6,0,0,0,3.09-.74,6.1,6.1,0,0,0,2.07-2,8.86,8.86,0,0,0,1.15-2.78,14,14,0,0,0,.36-3.15,12.07,12.07,0,0,0-.39-3.07,8.11,8.11,0,0,0-1.17-2.64,5.6,5.6,0,0,0-2.07-1.82,6.38,6.38,0,0,0-3-.68,5.82,5.82,0,0,0-3.08.77,6.17,6.17,0,0,0-2,2,8.86,8.86,0,0,0-1.11,2.79,14.9,14.9,0,0,0-.33,3.09,11.53,11.53,0,0,0,.38,3,8.34,8.34,0,0,0,1.18,2.62,6.31,6.31,0,0,0,2,1.87A5.74,5.74,0,0,0,102.81,30Z"/><path d="M120.11,9.46h5.18V13.1l.1.1A9.28,9.28,0,0,1,128.65,10a8.76,8.76,0,0,1,4.47-1.18,9.27,9.27,0,0,1,6.43,2.12c1.57,1.4,2.35,3.52,2.35,6.33v17h-5.47V18.67a6.78,6.78,0,0,0-1.25-4.25,4.54,4.54,0,0,0-3.6-1.32,5.91,5.91,0,0,0-2.5.51A5.39,5.39,0,0,0,127.21,15a6.61,6.61,0,0,0-1.2,2.09,7.65,7.65,0,0,0-.43,2.54V34.27h-5.47Z"/><path d="M151.4,23.28a9.54,9.54,0,0,0,.41,2.78A7,7,0,0,0,153,28.42,5.91,5.91,0,0,0,155.1,30a6.78,6.78,0,0,0,3,.6,6.59,6.59,0,0,0,3.87-1,6.15,6.15,0,0,0,2.18-3.09h5.18a10.29,10.29,0,0,1-1.48,3.6,10.59,10.59,0,0,1-2.55,2.66,10.76,10.76,0,0,1-3.33,1.63,13.41,13.41,0,0,1-3.87.55,13.11,13.11,0,0,1-5.18-1,10.69,10.69,0,0,1-3.82-2.68,11.51,11.51,0,0,1-2.35-4.13,16.71,16.71,0,0,1-.79-5.28,15,15,0,0,1,.84-5,12.85,12.85,0,0,1,2.4-4.17,11.27,11.27,0,0,1,8.76-3.92A11.05,11.05,0,0,1,163.18,10a11.4,11.4,0,0,1,3.87,3.24,13.11,13.11,0,0,1,2.23,4.63,14.35,14.35,0,0,1,.36,5.4Zm12.77-3.6a9.24,9.24,0,0,0-.55-2.5,6.67,6.67,0,0,0-1.25-2.08,6,6,0,0,0-1.92-1.44,5.62,5.62,0,0,0-2.52-.56,6.55,6.55,0,0,0-2.62.51,5.84,5.84,0,0,0-2,1.39A7,7,0,0,0,152,17.09a7.35,7.35,0,0,0-.55,2.59Z"/><path d="M197,34.27h-5.18V30.91h-.1A6.49,6.49,0,0,1,188.5,34a11,11,0,0,1-4.47.93,11.83,11.83,0,0,1-5.11-1,10.19,10.19,0,0,1-3.62-2.81,12,12,0,0,1-2.16-4.2,18.15,18.15,0,0,1-.72-5.2,16.6,16.6,0,0,1,.91-5.81,11.73,11.73,0,0,1,2.42-4,9.37,9.37,0,0,1,3.46-2.33,11,11,0,0,1,4-.75,13.62,13.62,0,0,1,2.35.22,10.27,10.27,0,0,1,2.31.7,9.19,9.19,0,0,1,2,1.22,7,7,0,0,1,1.56,1.75h.09V0H197Zm-19.1-12.14a12.26,12.26,0,0,0,.41,3.12A8.52,8.52,0,0,0,179.55,28a6.59,6.59,0,0,0,8.35,1.88,6.63,6.63,0,0,0,2.16-2A9.3,9.3,0,0,0,191.31,25a12.62,12.62,0,0,0,.4-3.19,10,10,0,0,0-1.84-6.43,6.1,6.1,0,0,0-5-2.31,6.18,6.18,0,0,0-3.24.8A6.55,6.55,0,0,0,179.45,16a8.61,8.61,0,0,0-1.2,2.88A15,15,0,0,0,177.89,22.13Z"/><path d="M1.34,51H6.82V63.67h.09A8,8,0,0,1,8.3,62a8.78,8.78,0,0,1,1.8-1.22,9.05,9.05,0,0,1,2.07-.77,8.76,8.76,0,0,1,2.13-.27,11.85,11.85,0,0,1,5.12,1A10,10,0,0,1,23,63.65a12.3,12.3,0,0,1,2.16,4.2A17.77,17.77,0,0,1,25.92,73a18.24,18.24,0,0,1-.65,4.85,12.55,12.55,0,0,1-2,4.15,9.57,9.57,0,0,1-8.08,4,19.38,19.38,0,0,1-2.52-.16,9.9,9.9,0,0,1-2.43-.65,8.46,8.46,0,0,1-2.09-1.25,6.09,6.09,0,0,1-1.56-2H6.53v3.41H1.34ZM20.45,72.89A12.76,12.76,0,0,0,20,69.62a8.79,8.79,0,0,0-1.3-2.8,6.67,6.67,0,0,0-2.16-2,5.84,5.84,0,0,0-3-.75,6,6,0,0,0-5.2,2.4,10.59,10.59,0,0,0-1.76,6.39,12.84,12.84,0,0,0,.46,3.48,7.77,7.77,0,0,0,1.37,2.76A6.8,6.8,0,0,0,10.63,81a6.2,6.2,0,0,0,2.95.67,6.12,6.12,0,0,0,3.17-.76,6.72,6.72,0,0,0,2.14-2,8,8,0,0,0,1.2-2.78A14.12,14.12,0,0,0,20.45,72.89Z"/><path d="M26.48,60.46h6L39,79h.09l6.29-18.52h5.71L41.4,86.62q-.66,1.68-1.32,3.21a11.35,11.35,0,0,1-1.58,2.71,6.82,6.82,0,0,1-2.33,1.88,8,8,0,0,1-3.55.69,23.91,23.91,0,0,1-3.79-.29v-4.6q.68.09,1.29.21a6.91,6.91,0,0,0,1.3.12A4.41,4.41,0,0,0,33,90.31a2.71,2.71,0,0,0,1-.69,4.54,4.54,0,0,0,.69-1.08,11.26,11.26,0,0,0,.53-1.44l.62-1.92Z"/><line class="cls-1" x1="196.99" y1="73.37" x2="56.04" y2="73.37"/></g></g></svg>