<svg xmlns="http://www.w3.org/2000/svg" viewBox="0 0 164.52 85.94"><defs><style>.cls-1{fill:none;stroke:#000;stroke-miterlimit:10;stroke-width:5px;}</style></defs><g id="Layer_2" data-name="Layer 2"><g id="Layer_1-2" data-name="Layer 1"><path d="M0,0H5.47V19.49l9.89-10h6.72l-9.5,9.12L23,34.27H16.32L8.74,22.22,5.47,25.39v8.88H0Z"/><path d="M23.77,9.46h6L36.25,28h.1L42.63,9.46h5.72L38.7,35.62Q38,37.3,37.38,38.83a11.38,11.38,0,0,1-1.59,2.71,6.82,6.82,0,0,1-2.33,1.88,8,8,0,0,1-3.55.69,23.91,23.91,0,0,1-3.79-.29v-4.6c.45.06.88.13,1.3.21a6.73,6.73,0,0,0,1.29.12,4.51,4.51,0,0,0,1.59-.24,2.67,2.67,0,0,0,1-.69A4.54,4.54,0,0,0,32,37.54a9.93,9.93,0,0,0,.53-1.44l.63-1.92Z"/><path d="M72.91,34.27H67.54V30.82h-.1a7.53,7.53,0,0,1-3,3,8.16,8.16,0,0,1-4.06,1.12c-3.26,0-5.62-.8-7.08-2.42s-2.18-4.06-2.18-7.32V9.46h5.47V24.67c0,2.18.42,3.71,1.25,4.61a4.52,4.52,0,0,0,3.5,1.34,6.9,6.9,0,0,0,2.88-.52,5.12,5.12,0,0,0,1.88-1.42,5.41,5.41,0,0,0,1-2.14,11.39,11.39,0,0,0,.31-2.68V9.46h5.47Z"/><path d="M78.27,9.46h5.47V36.38a8.88,8.88,0,0,1-1.63,5.72q-1.64,2-5.47,2a13.34,13.34,0,0,1-1.37,0c-.37,0-.73-.08-1.08-.14V39.6c.35.06.69.11,1,.14a6.77,6.77,0,0,0,.86,0c1,0,1.61-.3,1.85-.91a7.89,7.89,0,0,0,.36-2.74Zm0-9.46h5.47V5.18H78.27Z"/><path d="M89.12,0H94.6V5.18H89.12Zm0,9.46H94.6V52.33H89.12Z"/><path d="M99.92,9.46h5.18V13.1l.1.1A9.28,9.28,0,0,1,108.46,10a8.72,8.72,0,0,1,4.46-1.18,9.25,9.25,0,0,1,6.43,2.12c1.57,1.4,2.36,3.52,2.36,6.33v17h-5.47V18.67A6.78,6.78,0,0,0,115,14.42a4.54,4.54,0,0,0-3.6-1.32,5.91,5.91,0,0,0-2.5.51A5.3,5.3,0,0,0,107,15a6.61,6.61,0,0,0-1.2,2.09,7.41,7.41,0,0,0-.43,2.54V34.27H99.92Z"/><path d="M89.12,51H94.6V63.72h.09a8.08,8.08,0,0,1,3-2.81,8.88,8.88,0,0,1,4.44-1.13,9.25,9.25,0,0,1,6.43,2.12c1.57,1.4,2.36,3.52,2.36,6.33v17h-5.47V69.67a6.78,6.78,0,0,0-1.25-4.25,4.54,4.54,0,0,0-3.6-1.32,5.91,5.91,0,0,0-2.5.51A5.3,5.3,0,0,0,96.23,66,6.61,6.61,0,0,0,95,68.09a7.41,7.41,0,0,0-.43,2.54V85.27H89.12Z"/><path d="M137,79.75a2.86,2.86,0,0,0,.27,1.44,1.1,1.1,0,0,0,1,.43h.58a3.88,3.88,0,0,0,.77-.09v3.79l-.75.22c-.3.08-.62.15-.94.21s-.64.11-1,.15-.59,0-.81,0a5.29,5.29,0,0,1-2.79-.67A3.36,3.36,0,0,1,132,82.92a9.57,9.57,0,0,1-4,2.3,15.86,15.86,0,0,1-4.59.72,11.32,11.32,0,0,1-3.21-.45,8.45,8.45,0,0,1-2.72-1.35,6.52,6.52,0,0,1-1.87-2.25,7,7,0,0,1-.69-3.19,7.39,7.39,0,0,1,.84-3.75,6.17,6.17,0,0,1,2.2-2.25A9.91,9.91,0,0,1,121,71.52c1.13-.24,2.28-.42,3.43-.55a28.4,28.4,0,0,1,2.83-.41,13.48,13.48,0,0,0,2.38-.41,3.56,3.56,0,0,0,1.63-.89,2.44,2.44,0,0,0,.6-1.8,2.75,2.75,0,0,0-.51-1.72,3.36,3.36,0,0,0-1.24-1,5.43,5.43,0,0,0-1.66-.48,13.25,13.25,0,0,0-1.73-.12,6.88,6.88,0,0,0-3.79,1,3.78,3.78,0,0,0-1.68,3h-5.47a8.16,8.16,0,0,1,1.15-4,7.92,7.92,0,0,1,2.57-2.55A10.32,10.32,0,0,1,123,60.17a20.63,20.63,0,0,1,4-.39,16.82,16.82,0,0,1,3.6.39,10,10,0,0,1,3.19,1.25,6.94,6.94,0,0,1,2.28,2.23A6.07,6.07,0,0,1,137,67Zm-5.47-6.91a6.63,6.63,0,0,1-3.07,1c-1.22.12-2.43.28-3.65.51a10.83,10.83,0,0,0-1.68.41,4.86,4.86,0,0,0-1.44.72,3.15,3.15,0,0,0-1,1.2,4.07,4.07,0,0,0-.36,1.8,2.25,2.25,0,0,0,.53,1.53,3.73,3.73,0,0,0,1.27,1,6,6,0,0,0,1.63.5,9.65,9.65,0,0,0,1.61.14,9,9,0,0,0,2-.24,6.73,6.73,0,0,0,2-.81,5.34,5.34,0,0,0,1.56-1.47,3.74,3.74,0,0,0,.62-2.18Z"/><path d="M142.73,60.46h5.18V64.1l.1.1A9.28,9.28,0,0,1,151.27,61a8.72,8.72,0,0,1,4.46-1.18,9.29,9.29,0,0,1,6.44,2.12c1.56,1.4,2.35,3.52,2.35,6.33v17h-5.47V69.67a6.78,6.78,0,0,0-1.25-4.25,4.54,4.54,0,0,0-3.6-1.32,5.91,5.91,0,0,0-2.5.51A5.39,5.39,0,0,0,149.83,66a6.61,6.61,0,0,0-1.2,2.09,7.41,7.41,0,0,0-.43,2.54V85.27h-5.47Z"/><line class="cls-1" x1="83.74" y1="72.53" y2="72.53"/></g></g></svg>