<svg xmlns="http://www.w3.org/2000/svg" viewBox="0 0 276.06 326"><defs><style>.cls-1{fill:#231f20;}</style></defs><g id="Layer_2" data-name="Layer 2"><g id="Layer_3" data-name="Layer 3"><polygon class="cls-1" points="207.56 28.25 141.39 45.91 141.39 50.22 153.44 47 153.19 284.03 129.05 290.47 129.09 294.76 154.42 288.01 154.41 287.99 194.75 277.22 195.26 277.08 195.51 35.77 207.56 32.55 207.56 28.25"/><polygon class="cls-1" points="54.13 249.62 66.17 246.4 66.17 242.11 0 259.77 0 264.07 12.05 260.85 11.92 326 13.14 325.67 13.15 325.72 74.44 309.36 74.44 305.06 54 310.52 54.13 249.62"/><polygon class="cls-1" points="264.08 254.35 264.02 207.9 264.08 149.85 264.08 149.85 264.08 145.55 264.07 145.55 264.07 145.55 264.02 145.56 122.84 183.71 122.87 152.14 122.87 148.03 122.88 7.53 134.94 4.31 134.94 0 68.77 17.66 68.77 21.97 80.81 18.75 80.67 303.31 68.62 306.52 68.62 310.83 134.79 293.17 134.79 288.86 122.74 292.07 122.84 188.02 222.02 161.22 221.97 203.62 221.94 203.63 221.96 218.71 221.94 239.49 221.99 239.47 222.02 265.58 209.89 268.82 209.89 273.11 276.06 255.45 276.06 251.16 264.08 254.35"/></g></g></svg>